<?xml version="1.0" encoding="UTF-8"?>
<!DOCTYPE svg PUBLIC "-//W3C//DTD SVG 1.1//EN" "http://www.w3.org/Graphics/SVG/1.1/DTD/svg11.dtd">
<!-- Creator: CorelDRAW 2018 (64-Bit) -->
<svg xmlns="http://www.w3.org/2000/svg" xml:space="preserve" width="243px" height="108px" version="1.1" style="shape-rendering:geometricPrecision; text-rendering:geometricPrecision; image-rendering:optimizeQuality; fill-rule:evenodd; clip-rule:evenodd"
viewBox="0 0 24.08 10.66"
 xmlns:xlink="http://www.w3.org/1999/xlink">
 <defs>
  <style type="text/css">
   <![CDATA[
    .str5 {stroke:#FEFEFE;stroke-width:0.23;stroke-miterlimit:22.9256}
    .str3 {stroke:#EBECEC;stroke-width:0.23;stroke-miterlimit:22.9256}
    .str2 {stroke:#B2B3B3;stroke-width:0.23;stroke-miterlimit:22.9256}
    .str6 {stroke:#898989;stroke-width:0.23;stroke-miterlimit:22.9256}
    .str1 {stroke:#434242;stroke-width:0.23;stroke-miterlimit:22.9256}
    .str0 {stroke:#2B2A29;stroke-width:0.23;stroke-miterlimit:22.9256}
    .str4 {stroke:#FFED00;stroke-width:0.23;stroke-miterlimit:22.9256}
    .fil1 {fill:none}
    .fil5 {fill:#FEFEFE}
    .fil8 {fill:#EBECEC}
    .fil2 {fill:#D9DADA}
    .fil10 {fill:#C5C6C6}
    .fil6 {fill:#B2B3B3}
    .fil11 {fill:#9D9E9E}
    .fil12 {fill:#898989}
    .fil7 {fill:#5B5B5B}
    .fil4 {fill:#434242}
    .fil0 {fill:#2B2A29}
    .fil9 {fill:#FFED00}
    .fil3 {fill:#EF7F1A}
   ]]>
  </style>
 </defs>
 <g id="Слой_x0020_1">
  <metadata id="CorelCorpID_0Corel-Layer"/>
  <g id="greyder">
   <g id="kovsh">
    <rect class="fil0 str0" x="11.46" y="4.34" width="0.67" height="0.87"/>
    <polygon class="fil1 str0" points="13.83,4.26 13.3,3.82 12.68,4.37 13.28,4.75 "/>
    <polygon class="fil1 str0" points="14.09,4.41 14.63,4.81 14.05,5.33 13.48,4.98 "/>
    <polygon class="fil2 str0" points="16.22,5.22 16.38,5.06 17.6,5.72 17.45,5.9 "/>
    <path class="fil3 str0" d="M17.16 5.93c0.91,-1.21 1.28,-0.06 1.89,0.67l-1.19 0.8 -0.7 -1.47z"/>
    <path class="fil3 str0" d="M18.79 9.05c-3.63,0.08 -2.42,-2.18 -7.52,-4.94 1.09,-0.92 1.96,-1.17 2.51,-0.43l2.6 1.38 -0.16 0.16 -2.03 -1.1c1.61,2 2.95,4.04 3.89,4.01l0.71 0.92z"/>
    <path class="fil0 str0" d="M20.22 5.77c0.09,0.66 1.46,1.91 2.56,3.22 0.39,0.07 0.73,0.16 0.99,0.3 -3.15,0.94 -5.42,0.57 -5.93,-1.91l2.38 -1.61z"/>
    <path class="fil4 str1" d="M20.22 5.81c0.32,0.69 1.4,1.9 2.59,3.19 0.47,0.08 0.78,0.17 0.99,0.29 -3.25,1.15 -4.18,-0.31 -3.58,-3.48z"/>
   </g>
   <g id="kabina">
    <polygon class="fil0 str0" points="2.95,0.12 8.04,0.12 8.88,4.51 8.88,6.27 2.3,6.27 2.3,3.84 1.27,4.51 1.27,4.73 0.44,4.73 0.48,3.64 1.27,3.64 1.27,3.84 2.46,3.13 "/>
    <polygon class="fil5 str0" points="3.25,0.51 5.78,0.51 5.78,3.84 2.72,3.84 "/>
    <polygon class="fil5 str0" points="6.12,0.51 7.71,0.51 8.37,3.84 6.14,3.84 "/>
    <polygon class="fil5 str0" points="6.14,4.18 6.14,4.51 8.53,4.51 8.53,4.18 "/>
    <polygon class="fil5 str0" points="5.78,4.51 2.95,4.51 2.95,4.18 5.81,4.18 "/>
   </g>
   <g id="kuzov_x0020_">
    <g id="dno">
     <rect class="fil0 str0" x="5.33" y="7.88" width="4.42" height="1.26"/>
     <rect class="fil5 str0" x="5.94" y="8.25" width="1.88" height="0.09"/>
     <rect class="fil5 str0" x="5.98" y="8.49" width="1.6" height="0.36"/>
     <path class="fil6 str2" d="M7.86 8.17l1.71 0c0.15,0 0.28,0.13 0.28,0.28l0 0.65c0,0.15 -0.13,0.28 -0.28,0.28l-1.71 0c-0.16,0 -0.28,-0.13 -0.28,-0.28l0 -0.65c0,-0.15 0.12,-0.28 0.28,-0.28z"/>
     <rect class="fil7 str0" x="5.33" y="7.57" width="4.42" height="0.31"/>
    </g>
    <path class="fil3 str0" d="M6.65 6.27l0 1.3 2.6 0c0.04,-1.4 0.66,-2.32 2.2,-2.46 -0.14,-0.23 -1.28,-0.41 -2.57,-0.6l0 1.76 -2.23 0z"/>
    <rect class="fil8 str3" x="6.65" y="6.92" width="2.68" height="0.23"/>
    <rect class="fil8 str3" x="6.65" y="6.59" width="2.75" height="0.22"/>
    <path class="fil3 str0" d="M3.43 4.14c2.28,0.09 3.28,1.35 3.47,3.43l-6.78 0c-0.07,-1.69 1.02,-3.52 3.31,-3.43z"/>
    <path class="fil3 str0" d="M11.61 5.12c1.63,0.07 2.34,0.97 2.48,2.45l-4.84 0c-0.05,-1.21 0.72,-2.51 2.36,-2.45z"/>
    <path class="fil9 str4" d="M2.3 5.42c1.6,-0.04 2.89,0.32 3.16,2.15l0.6 0c0.11,-2.53 -2.33,-3.17 -3.76,-2.15z"/>
    <path class="fil5 str5" d="M0.45 7.2c0.15,-2.16 1.69,-2.78 2.87,-2.73 -1.09,0.22 -2.22,0.38 -2.87,2.73z"/>
    <path class="fil5 str5" d="M9.46 7.38c0.11,-1.65 1.29,-2.12 2.19,-2.08 -0.83,0.16 -1.69,0.29 -2.19,2.08z"/>
    <path class="fil9 str4" d="M10.35 6.4c1.33,-0.68 2.34,-0.38 3.12,0.34 -0.8,-1.9 -2.53,-1.08 -3.12,-0.34z"/>
   </g>
   <g id="backWheel">
    <circle class="fil0 str0" cx="11.68" cy="8.25" r="2.29"/>
    <circle class="fil10 str0" cx="11.68" cy="8.25" r="1.45"/>
    <circle class="fil11 str0" cx="11.68" cy="8.25" r="0.87"/>
    <circle class="fil5 str0" cx="11.68" cy="8.25" r="0.41"/>
    <circle class="fil12 str6" cx="12.85" cy="8.25" r="0.14"/>
    <circle class="fil12 str6" transform="matrix(0.0877833 -0.0736589 0.0736589 0.0877833 12.5782 7.49413)" r="1.19"/>
    <circle class="fil12 str6" transform="matrix(0.0198989 -0.112852 0.112852 0.0198989 11.8841 7.09331)" r="1.19"/>
    <circle class="fil12 str6" transform="matrix(-0.0572965 -0.0992404 0.0992404 -0.0572965 11.0947 7.23249)" r="1.19"/>
    <circle class="fil12 str6" transform="matrix(-0.107682 -0.0391931 0.0391931 -0.107682 10.5795 7.84653)" r="1.19"/>
    <circle class="fil12 str6" transform="matrix(-0.107682 0.0391931 -0.0391931 -0.107682 10.5795 8.64811)" r="1.19"/>
    <circle class="fil12 str6" transform="matrix(-0.0572965 0.0992404 -0.0992404 -0.0572965 11.0947 9.26215)" r="1.19"/>
    <circle class="fil12 str6" transform="matrix(0.0198989 0.112852 -0.112852 0.0198989 11.8841 9.40133)" r="1.19"/>
    <circle class="fil12 str6" transform="matrix(0.0877833 0.0736589 -0.0736589 0.0877833 12.5783 9.00056)" r="1.19"/>
   </g>
   <g id="backWheel_0">
    <circle class="fil0 str0" cx="3.05" cy="7.88" r="2.57"/>
    <circle class="fil10 str0" cx="3.05" cy="7.88" r="1.62"/>
    <circle class="fil11 str0" cx="3.05" cy="7.88" r="0.97"/>
    <circle class="fil5 str0" cx="3.05" cy="7.88" r="0.46"/>
    <circle class="fil12 str6" cx="4.36" cy="7.88" r="0.15"/>
    <circle class="fil12 str6" transform="matrix(0.0983395 -0.0825166 0.0825166 0.0983395 4.05537 7.03366)" r="1.19"/>
    <circle class="fil12 str6" transform="matrix(0.0222918 -0.126423 0.126423 0.0222918 3.27775 6.58465)" r="1.19"/>
    <circle class="fil12 str6" transform="matrix(-0.0641865 -0.111174 0.111174 -0.0641865 2.39347 6.74056)" r="1.19"/>
    <circle class="fil12 str6" transform="matrix(-0.120631 -0.0439062 0.0439062 -0.120631 1.81626 7.42844)" r="1.19"/>
    <circle class="fil12 str6" transform="matrix(-0.120631 0.0439062 -0.0439062 -0.120631 1.81626 8.32641)" r="1.19"/>
    <circle class="fil12 str6" transform="matrix(-0.0641865 0.111174 -0.111174 -0.0641865 2.39347 9.01429)" r="1.19"/>
    <circle class="fil12 str6" transform="matrix(0.0222918 0.126423 -0.126423 0.0222918 3.2778 9.17021)" r="1.19"/>
    <circle class="fil12 str6" transform="matrix(0.0983395 0.0825166 -0.0825166 0.0983395 4.05543 8.72124)" r="1.19"/>
   </g>
  </g>
 </g>
</svg>
