<?xml version="1.0" encoding="UTF-8"?>
<!DOCTYPE svg PUBLIC "-//W3C//DTD SVG 1.1//EN" "http://www.w3.org/Graphics/SVG/1.1/DTD/svg11.dtd">
<!-- Creator: CorelDRAW 2018 (64-Bit) -->
<svg xmlns="http://www.w3.org/2000/svg" xml:space="preserve" width="21.8862mm" height="14.67mm" version="1.1" style="shape-rendering:geometricPrecision; text-rendering:geometricPrecision; image-rendering:optimizeQuality; fill-rule:evenodd; clip-rule:evenodd"
viewBox="0 0 269.63 180.73"
 xmlns:xlink="http://www.w3.org/1999/xlink">
 <defs>
  <style type="text/css">
   <![CDATA[
    .str4 {stroke:#898989;stroke-width:2.46;stroke-miterlimit:22.9256}
    .str2 {stroke:#434242;stroke-width:2.46;stroke-miterlimit:22.9256}
    .str1 {stroke:#2B2A29;stroke-width:2.46;stroke-miterlimit:22.9256}
    .str0 {stroke:#FECC00;stroke-width:2.46;stroke-miterlimit:22.9256}
    .str3 {stroke:#CC6F3C;stroke-width:2.46;stroke-miterlimit:22.9256}
    .fil10 {fill:#EBECEC}
    .fil11 {fill:#C5C6C6}
    .fil8 {fill:#B2B3B3}
    .fil7 {fill:#898989}
    .fil9 {fill:#727271}
    .fil3 {fill:#434242}
    .fil4 {fill:#2B2A29}
    .fil12 {fill:#AF9778}
    .fil0 {fill:#FECC00}
    .fil5 {fill:#EF7F1A}
    .fil1 {fill:url(#id0)}
    .fil6 {fill:url(#id1)}
    .fil2 {fill:url(#id2)}
   ]]>
  </style>
  <linearGradient id="id0" gradientUnits="userSpaceOnUse" x1="136.11" y1="71.58" x2="136.11" y2="14.52">
   <stop offset="0" style="stop-opacity:1; stop-color:#A8D4AF"/>
   <stop offset="0.14902" style="stop-opacity:1; stop-color:#D3E9D6"/>
   <stop offset="1" style="stop-opacity:1; stop-color:#FEFEFE"/>
  </linearGradient>
  <linearGradient id="id1" gradientUnits="userSpaceOnUse" x1="118.57" y1="107.66" x2="108.03" y2="78.69">
   <stop offset="0" style="stop-opacity:1; stop-color:#AF9778"/>
   <stop offset="0.690196" style="stop-opacity:1; stop-color:#FFFBDB"/>
   <stop offset="1" style="stop-opacity:1; stop-color:#AF9778"/>
  </linearGradient>
  <linearGradient id="id2" gradientUnits="userSpaceOnUse" xlink:href="#id0" x1="176.72" y1="48.13" x2="176.72" y2="14.52">
  </linearGradient>
 </defs>
 <g id="Слой_x0020_1">
  <metadata id="CorelCorpID_0Corel-Layer"/>
  <g id="_1602099004784">
   <g id="kabina">
    <path class="fil0 str0" d="M126.41 7.14l66.47 0 0 56.87 67.01 0c3.16,0 5.73,2.58 5.73,5.73l0 45.78 -166.72 0 0 -55.57 27.51 -52.8z"/>
    <path class="fil1 str1" d="M131.95 14.53l32.5 0 0 34.71c-10.34,2.63 -15.76,10.08 -16.25,22.34l-40.43 0 24.19 -57.05z"/>
    <rect class="fil2 str1" x="170.91" y="14.53" width="11.63" height="33.6"/>
    <rect class="fil3 str2" x="162.23" y="54.41" width="18.09" height="5.54"/>
    <rect class="fil4 str1" x="195.65" y="58.1" width="52.99" height="5.91"/>
    <rect class="fil5 str1" x="197.79" y="65.84" width="25.13" height="15.83"/>
    <rect class="fil3 str1" x="212.3" y="44.64" width="7.85" height="13.46"/>
    <rect class="fil3 str1" x="231.15" y="44.83" width="8.78" height="13.27"/>
    <path class="fil6 str3" d="M94.22 83.82l27.79 -10.03c6.97,-2.52 14.88,1.51 17.56,8.96l0.6 1.67c2.69,7.44 -0.82,15.6 -7.79,18.11l-27.79 10.03c-6.97,2.52 -14.88,-1.51 -17.57,-8.96l-0.6 -1.67c-2.69,-7.44 0.82,-15.6 7.79,-18.11z"/>
    <path class="fil4 str1" d="M127.21 1.23l64.85 0c3.16,0 5.73,2.58 5.73,5.73l0 0.17 -76.32 0 0 -0.17c0,-3.16 2.57,-5.73 5.73,-5.73z"/>
    <rect class="fil4 str1" x="199.73" y="67.28" width="21.11" height="1.02"/>
    <rect class="fil4 str1" x="199.73" y="69.57" width="21.11" height="1.02"/>
    <rect class="fil4 str1" x="199.73" y="71.87" width="21.11" height="1.02"/>
    <rect class="fil4 str1" x="199.73" y="74.16" width="21.11" height="1.02"/>
    <rect class="fil4 str1" x="199.73" y="76.45" width="21.11" height="1.02"/>
    <rect class="fil4 str1" x="199.73" y="78.75" width="21.11" height="1.02"/>
    <path class="fil3 str1" d="M212.3 39.23l7.1 0c1.12,0 2.04,1.16 2.04,2.58l0 2.93 -11.18 0 0 -2.93c0,-1.42 0.92,-2.58 2.04,-2.58z"/>
    <path class="fil3 str1" d="M240.66 30.62l-4.94 0c-1.58,0 -2.87,1.29 -2.87,2.87l0 11.25 5.82 0 0 -7.37c0,-0.63 0.51,-1.15 1.15,-1.15l0.84 0 0 -5.6z"/>
   </g>
   <g id="frontPart">
    <rect class="fil3 str2" x="98.9" y="114.85" width="169.49" height="12.92" rx="1.77" ry="1.77"/>
    <path class="fil7 str4" d="M159.82 133.42c0.64,-24.07 22.07,-43.41 48.41,-43.41 26.34,0 47.77,19.34 48.41,43.41 0.01,0.3 -0.1,0.57 -0.33,0.78 -0.23,0.22 -0.51,0.33 -0.84,0.33l-1.74 0c-0.64,0 -1.16,-0.47 -1.18,-1.05 -0.61,-22.02 -20.22,-39.7 -44.32,-39.7 -24.1,0 -43.71,17.68 -44.32,39.7 -0.02,0.59 -0.54,1.05 -1.18,1.05l-1.74 0c-0.33,0 -0.61,-0.11 -0.84,-0.33 -0.23,-0.22 -0.34,-0.48 -0.34,-0.78z"/>
   </g>
   <g id="backWheel">
    <circle class="fil3 str1" cx="53.94" cy="128.44" r="51.05"/>
    <circle class="fil0 str1" cx="53.94" cy="128.44" r="49.39"/>
    <circle class="fil5 str1" cx="53.94" cy="128.44" r="39.15"/>
    <circle class="fil8 str1" cx="53.94" cy="128.44" r="36.65"/>
    <circle class="fil5 str1" cx="53.94" cy="128.44" r="14.31"/>
    <circle class="fil9 str1" cx="53.94" cy="110.94" r="1.84"/>
    <circle class="fil9 str1" transform="matrix(0.218683 -0.0795941 0.0795941 0.218683 47.9577 111.995)" r="7.91"/>
    <circle class="fil9 str1" transform="matrix(0.178272 -0.149588 0.149588 0.178272 42.6933 115.034)" r="7.91"/>
    <circle class="fil9 str1" transform="matrix(0.116359 -0.201539 0.201539 0.116359 38.7858 119.69)" r="7.91"/>
    <circle class="fil9 str1" transform="matrix(0.040411 -0.229182 0.229182 0.040411 36.7063 125.402)" r="7.91"/>
    <circle class="fil9 str1" transform="matrix(-0.040411 -0.229182 0.229182 -0.040411 36.7054 131.481)" r="7.91"/>
    <circle class="fil9 str1" transform="matrix(-0.116359 -0.201539 0.201539 -0.116359 38.7832 137.193)" r="7.91"/>
    <circle class="fil9 str1" transform="matrix(-0.178272 -0.149588 0.149588 -0.178272 42.689 141.849)" r="7.91"/>
    <circle class="fil9 str1" transform="matrix(-0.218683 -0.0795941 0.0795941 -0.218683 47.9517 144.89)" r="7.91"/>
    <circle class="fil9 str1" cx="53.94" cy="145.95" r="1.84"/>
    <circle class="fil9 str1" transform="matrix(-0.218683 0.0795941 -0.0795941 -0.218683 59.9218 144.893)" r="7.91"/>
    <circle class="fil9 str1" transform="matrix(-0.178272 0.149588 -0.149588 -0.178272 65.1865 141.856)" r="7.91"/>
    <circle class="fil9 str1" transform="matrix(-0.116359 0.201539 -0.201539 -0.116359 69.0944 137.201)" r="7.91"/>
    <circle class="fil9 str1" transform="matrix(-0.040411 0.229182 -0.229182 -0.040411 71.1743 131.491)" r="7.91"/>
    <circle class="fil9 str1" transform="matrix(0.040411 0.229182 -0.229182 0.040411 71.1754 125.414)" r="7.91"/>
    <circle class="fil9 str1" transform="matrix(0.116359 0.201539 -0.201539 0.116359 69.0977 119.703)" r="7.91"/>
    <circle class="fil9 str1" transform="matrix(0.178272 0.149588 -0.149588 0.178272 65.1922 115.047)" r="7.91"/>
    <circle class="fil9 str1" transform="matrix(0.218683 0.0795941 -0.0795941 0.218683 59.9297 112.008)" r="7.91"/>
   </g>
   <g id="backPart">
    <rect class="fil3 str2" x="1.23" y="118.92" width="107.64" height="18.65" rx="2.22" ry="2.22"/>
    <circle class="fil10 str1" cx="53.94" cy="128.05" r="6.37"/>
    <circle class="fil8 str1" cx="53.94" cy="128.05" r="2.87"/>
    <path class="fil7 str4" d="M11.46 87.14c22.5,-22.62 59.08,-23.28 82.37,-1.21 23.29,22.06 24.63,58.62 3.27,82.31 -0.27,0.3 -0.61,0.46 -1.01,0.47 -0.4,0.01 -0.75,-0.12 -1.04,-0.39l-1.54 -1.46c-0.56,-0.53 -0.6,-1.42 -0.08,-2 19.52,-21.69 18.29,-55.14 -3.02,-75.32 -21.31,-20.18 -54.77,-19.6 -75.37,1.08 -0.55,0.55 -1.44,0.56 -2,0.03l-1.54 -1.46c-0.29,-0.28 -0.44,-0.62 -0.45,-1.02 -0.01,-0.4 0.13,-0.75 0.42,-1.03z"/>
   </g>
   <g id="frontWheel">
    <circle class="fil4 str1" cx="208.79" cy="137.77" r="40.78"/>
    <circle class="fil11 str1" cx="208.79" cy="137.77" r="25.94"/>
    <circle class="fil0 str1" cx="208.79" cy="137.77" r="23.91"/>
    <circle class="fil12 str1" cx="208.79" cy="137.77" r="11.54"/>
    <circle class="fil4 str1" cx="208.79" cy="124.45" r="0.74"/>
    <circle class="fil4 str1" transform="matrix(0.178272 -0.149588 0.149588 0.178272 200.227 127.565)" r="3.18"/>
    <circle class="fil4 str1" transform="matrix(0.040411 -0.229182 0.229182 0.040411 195.673 135.453)" r="3.18"/>
    <circle class="fil4 str1" transform="matrix(-0.116359 -0.201539 0.201539 -0.116359 197.253 144.423)" r="3.18"/>
    <circle class="fil4 str1" transform="matrix(-0.218683 -0.0795941 0.0795941 -0.218683 204.231 150.279)" r="3.18"/>
    <circle class="fil4 str1" transform="matrix(-0.218683 0.0795941 -0.0795941 -0.218683 213.341 150.28)" r="3.18"/>
    <circle class="fil4 str1" transform="matrix(-0.116359 0.201539 -0.201539 -0.116359 220.319 144.424)" r="3.18"/>
    <circle class="fil4 str1" transform="matrix(0.040411 0.229182 -0.229182 0.040411 221.9 135.452)" r="3.18"/>
    <circle class="fil4 str1" transform="matrix(0.178272 0.149588 -0.149588 0.178272 217.345 127.564)" r="3.18"/>
   </g>
  </g>
 </g>
</svg>
