<?xml version="1.0" encoding="UTF-8"?>
<!DOCTYPE svg PUBLIC "-//W3C//DTD SVG 1.1//EN" "http://www.w3.org/Graphics/SVG/1.1/DTD/svg11.dtd">
<!-- Creator: CorelDRAW 2018 (64-Bit) -->
<svg xmlns="http://www.w3.org/2000/svg" xml:space="preserve" width="52px" height="65px" version="1.1" style="shape-rendering:geometricPrecision; text-rendering:geometricPrecision; image-rendering:optimizeQuality; fill-rule:evenodd; clip-rule:evenodd"
viewBox="0 0 3.13 3.87"
 xmlns:xlink="http://www.w3.org/1999/xlink">
 <defs>
  <style type="text/css">
   <![CDATA[
    .str0 {stroke:coral;stroke-width:0.14;stroke-miterlimit:22.9256}
    .fil0 {fill:#434242}
   ]]>
  </style>
 </defs>
 <g id="Слой_x0020_1">
  <metadata id="CorelCorpID_0Corel-Layer"/>
  <path id="man02" class="fil0 str0" d="M2.07 0.07c0.28,0 0.52,0.23 0.52,0.52 0,0.28 -0.24,0.51 -0.52,0.51 -0.28,0 -0.52,-0.23 -0.52,-0.51 0,-0.29 0.24,-0.52 0.52,-0.52zm-1.28 2.1l-0.19 -1c0,-0.01 0,-0.02 0.01,-0.03 0.01,-0.01 0.02,-0.02 0.03,-0.02l0.32 -0.04c0.03,0 0.05,0.02 0.05,0.04l0.04 0.26c0.33,0.29 0.59,0.26 0.78,-0.07 0.16,-0.04 0.33,-0.04 0.49,0 0.47,0.18 0.7,0.59 0.74,0.92 -0.11,0.43 -0.31,-0.21 -0.5,-0.22l0.15 1.62c0.01,0.04 -0.01,0.07 -0.03,0.11 -0.03,0.03 -0.07,0.04 -0.11,0.04l-0.29 0c-0.08,0 -0.14,-0.06 -0.14,-0.14l-0.01 -0.79 -0.13 0 -0.04 0.82c0,0.07 -0.07,0.13 -0.14,0.13l-0.3 0c-0.04,0 -0.08,-0.02 -0.11,-0.05 -0.02,-0.03 -0.03,-0.07 -0.03,-0.11l0.17 -1.6 -0.41 -0.19 0.05 0.28c0,0.01 -0.01,0.03 -0.01,0.04 -0.01,0.01 -0.02,0.01 -0.04,0.01l-0.3 0.03c-0.03,0 -0.05,-0.01 -0.05,-0.04zm-0.58 -1.21c0.32,0.02 0.6,0.01 0.77,-0.06l0.08 -0.11c0.09,-0.06 0.18,-0.08 0.28,-0.03 -0.07,-0.33 -0.23,-0.49 -0.46,-0.5 -0.29,0 -0.47,0.05 -0.5,0.16l-0.23 0.03c-0.05,0.01 -0.08,0.06 -0.08,0.11l0.04 0.32c0.01,0.05 0.05,0.08 0.1,0.08z"/>
 </g>
</svg>
