<?xml version="1.0" encoding="UTF-8"?>
<!DOCTYPE svg PUBLIC "-//W3C//DTD SVG 1.1//EN" "http://www.w3.org/Graphics/SVG/1.1/DTD/svg11.dtd">
<!-- Creator: CorelDRAW 2018 (64-Bit) -->
<svg xmlns="http://www.w3.org/2000/svg" xml:space="preserve" width="44px" height="65px" version="1.1" style="shape-rendering:geometricPrecision; text-rendering:geometricPrecision; image-rendering:optimizeQuality; fill-rule:evenodd; clip-rule:evenodd"
viewBox="0 0 2.28 3.32"
 xmlns:xlink="http://www.w3.org/1999/xlink">
 <defs>
  <style type="text/css">
   <![CDATA[
    .str0 {stroke:coral;stroke-width:0.12;stroke-miterlimit:22.9256}
    .fil0 {fill:#434242}
   ]]>
  </style>
 </defs>
 <g id="Слой_x0020_1">
  <metadata id="CorelCorpID_0Corel-Layer"/>
  <path id="man06" class="fil0 str0" d="M1.37 0.06c0.25,0 0.44,0.2 0.44,0.44 0,0.25 -0.19,0.45 -0.44,0.45 -0.24,0 -0.44,-0.2 -0.44,-0.45 0,-0.24 0.2,-0.44 0.44,-0.44zm-0.82 0.85l-0.03 0.2c0.29,0.25 0.43,0.2 0.64,0.01 0.15,-0.03 0.29,-0.03 0.43,0 0.4,0.16 0.59,0.51 0.63,0.79 -0.09,0.37 -0.26,-0.17 -0.43,-0.18l0.13 1.39c0.01,0.03 0,0.06 -0.03,0.09 -0.02,0.02 -0.05,0.04 -0.09,0.04l-0.25 -0.01c-0.06,0 -0.12,-0.05 -0.12,-0.11l-0.01 -0.68 -0.11 0 -0.03 0.7c-0.01,0.06 -0.06,0.11 -0.13,0.11l-0.25 0c-0.04,0 -0.07,-0.01 -0.09,-0.04 -0.03,-0.03 -0.04,-0.06 -0.03,-0.09l0.14 -1.37c-0.16,-0.16 -0.34,-0.27 -0.44,-0.4l-0.04 0.87 0.18 0.14 -0.05 0.46 -0.27 0.17 -0.24 -0.19 0.04 -0.51 0.18 -0.07 0.12 -1.34 -0.14 -0.2 0 -0.24 0.53 0.03 -0.06 0.26 -0.18 0.17z"/>
 </g>
</svg>
