<?xml version="1.0" encoding="UTF-8"?>
<!DOCTYPE svg PUBLIC "-//W3C//DTD SVG 1.1//EN" "http://www.w3.org/Graphics/SVG/1.1/DTD/svg11.dtd">
<!-- Creator: CorelDRAW 2018 (64-Bit) -->
<svg xmlns="http://www.w3.org/2000/svg" xml:space="preserve" width="48px" height="68px" version="1.1" style="shape-rendering:geometricPrecision; text-rendering:geometricPrecision; image-rendering:optimizeQuality; fill-rule:evenodd; clip-rule:evenodd"
viewBox="0 0 2.71 3.83"
 xmlns:xlink="http://www.w3.org/1999/xlink">
 <defs>
  <style type="text/css">
   <![CDATA[
    .str0 {stroke:coral;stroke-width:0.13;stroke-miterlimit:22.9256}
    .fil0 {fill:#434242}
   ]]>
  </style>
 </defs>
 <g id="Слой_x0020_1">
  <metadata id="CorelCorpID_0Corel-Layer"/>
  <path id="man03" class="fil0 str0" d="M1.71 0.28c0.27,0 0.49,0.21 0.49,0.48 0,0.27 -0.22,0.48 -0.49,0.48 -0.26,0 -0.48,-0.21 -0.48,-0.48 0,-0.27 0.22,-0.48 0.48,-0.48zm-1.28 1.5c-0.13,1.12 0.84,0.96 0.64,0.25l0.16 0.1 -0.16 1.49c-0.01,0.04 0.01,0.07 0.03,0.1 0.03,0.03 0.06,0.04 0.1,0.05l0.28 0c0.07,0 0.13,-0.06 0.13,-0.13l0.03 -0.76 0.13 0 0.01 0.74c0,0.07 0.06,0.13 0.13,0.13l0.27 0c0.04,0 0.08,-0.01 0.1,-0.04 0.03,-0.03 0.04,-0.06 0.04,-0.1l-0.15 -1.51c0.18,0.01 0.37,0.6 0.47,0.2 -0.04,-0.31 -0.25,-0.7 -0.69,-0.86 -0.15,-0.04 -0.31,-0.04 -0.46,0 -0.18,0.31 -0.37,0.24 -0.68,-0.04l-0.13 -0.06 -0.16 -0.66 0.07 -0.19 -0.19 -0.41 -0.33 0.08 0.03 0.49 0.15 0.11 0.2 0.63 -0.1 0.09 0.08 0.3zm0.3 0.26c0.04,-0.01 0.09,0.03 0.1,0.1 0.01,0.07 -0.01,0.13 -0.06,0.14 -0.05,0 -0.09,-0.04 -0.1,-0.11 -0.02,-0.06 0.01,-0.13 0.06,-0.13z"/>
 </g>
</svg>
