<?xml version="1.0" encoding="UTF-8"?>
<!DOCTYPE svg PUBLIC "-//W3C//DTD SVG 1.1//EN" "http://www.w3.org/Graphics/SVG/1.1/DTD/svg11.dtd">
<!-- Creator: CorelDRAW 2018 (64-Bit) -->
<svg xmlns="http://www.w3.org/2000/svg" xml:space="preserve" width="49px" height="66px" version="1.1" style="shape-rendering:geometricPrecision; text-rendering:geometricPrecision; image-rendering:optimizeQuality; fill-rule:evenodd; clip-rule:evenodd"
viewBox="0 0 2.8 3.74"
 xmlns:xlink="http://www.w3.org/1999/xlink">
 <defs>
  <style type="text/css">
   <![CDATA[
    .str0 {stroke:coral;stroke-width:0.13;stroke-miterlimit:22.9256}
    .fil0 {fill:#434242}
   ]]>
  </style>
 </defs>
 <g id="Слой_x0020_1">
  <metadata id="CorelCorpID_0Corel-Layer"/>
  <path id="man05" class="fil0 str0" d="M1.79 0.13c0.27,0 0.49,0.22 0.49,0.49 0,0.27 -0.22,0.49 -0.49,0.49 -0.27,0 -0.49,-0.22 -0.49,-0.49 0,-0.27 0.22,-0.49 0.49,-0.49zm-1.1 2.31l0.14 -0.83 0.46 0.39 -0.16 1.52c0,0.04 0.01,0.07 0.04,0.1 0.02,0.03 0.06,0.05 0.09,0.05l0.29 0c0.07,0 0.13,-0.06 0.13,-0.13l0.04 -0.77 0.12 0 0.02 0.75c0,0.07 0.06,0.13 0.13,0.13l0.28 0c0.04,0 0.07,-0.01 0.1,-0.04 0.02,-0.03 0.03,-0.06 0.03,-0.1l-0.14 -1.54c0.18,0.01 0.37,0.62 0.47,0.21 -0.04,-0.31 -0.25,-0.71 -0.7,-0.88 -0.16,-0.04 -0.31,-0.03 -0.47,0 -0.18,0.32 -0.24,0.36 -0.56,0.09l0.16 -0.2 0.01 -0.56 -0.12 0 0.01 -0.56 -0.29 0 -0.51 0.28 0.59 0 -0.01 0.3 -0.12 0 -0.02 -0.12 -0.33 0 -0.01 0.14 0.11 0.01 0 1.75 0.22 0.01zm0 -1.56l0.24 0 0 0.2 -0.24 0 0 -0.2z"/>
 </g>
</svg>
