<?xml version="1.0" encoding="UTF-8"?>
<!DOCTYPE svg PUBLIC "-//W3C//DTD SVG 1.1//EN" "http://www.w3.org/Graphics/SVG/1.1/DTD/svg11.dtd">
<!-- Creator: CorelDRAW 2018 (64-Bit) -->
<svg xmlns="http://www.w3.org/2000/svg" xml:space="preserve" width="54px" height="66px" version="1.1" style="shape-rendering:geometricPrecision; text-rendering:geometricPrecision; image-rendering:optimizeQuality; fill-rule:evenodd; clip-rule:evenodd"
viewBox="0 0 3.34 4.06"
 xmlns:xlink="http://www.w3.org/1999/xlink">
 <defs>
  <style type="text/css">
   <![CDATA[
    .str0 {stroke:coral;stroke-width:0.15;stroke-miterlimit:22.9256}
    .fil0 {fill:#434242}
   ]]>
  </style>
 </defs>
 <g id="Слой_x0020_1">
  <metadata id="CorelCorpID_0Corel-Layer"/>
  <path id="man01" class="fil0 str0" d="M2.24 0.19c0.29,0 0.53,0.23 0.53,0.53 0,0.29 -0.24,0.52 -0.53,0.52 -0.29,0 -0.53,-0.23 -0.53,-0.52 0,-0.3 0.24,-0.53 0.53,-0.53zm-0.89 1.62l0.37 0.37 -0.17 1.64c-0.01,0.04 0,0.08 0.03,0.11 0.03,0.03 0.07,0.05 0.11,0.05l0.31 0c0.07,0 0.14,-0.06 0.14,-0.13l0.04 -0.84 0.13 0.01 0.02 0.8c0,0.08 0.06,0.14 0.14,0.14l0.3 0c0.04,0 0.08,-0.01 0.1,-0.04 0.03,-0.03 0.05,-0.07 0.04,-0.11l-0.15 -1.66c0.19,0.01 0.4,0.67 0.51,0.22 -0.13,-0.3 -0.3,-0.73 -0.7,-0.94 -0.16,-0.04 -0.39,-0.04 -0.56,0 -0.2,0.34 -0.3,0.28 -0.65,-0.02l0.04 -0.34 0.19 -0.16 0.02 -0.47 -0.1 -0.02 0.01 -0.34 -0.15 0 -0.02 0.35 -0.25 0 0.02 -0.34 -0.21 0 0 0.33 -0.1 0.06 0.01 0.45 0.23 0.17c-0.03,0.84 -0.22,0.32 -0.27,0.13 -0.09,-0.39 -0.47,-0.31 -0.61,-0.02 -0.09,0.16 -0.11,0.35 -0.09,0.56 0.09,0.09 0.18,0.09 0.26,0.01 0.08,-0.22 0.09,-0.36 0.12,-0.38 0.12,-0.08 0.06,1.01 0.89,0.41z"/>
 </g>
</svg>
