<?xml version="1.0" encoding="UTF-8"?>
<!DOCTYPE svg PUBLIC "-//W3C//DTD SVG 1.1//EN" "http://www.w3.org/Graphics/SVG/1.1/DTD/svg11.dtd">
<!-- Creator: CorelDRAW 2018 (64-Bit) -->
<svg xmlns="http://www.w3.org/2000/svg" xml:space="preserve" width="44px" height="65px" version="1.1" style="shape-rendering:geometricPrecision; text-rendering:geometricPrecision; image-rendering:optimizeQuality; fill-rule:evenodd; clip-rule:evenodd"
viewBox="0 0 2.27 3.4"
 xmlns:xlink="http://www.w3.org/1999/xlink">
 <defs>
  <style type="text/css">
   <![CDATA[
    .str0 {stroke:coral;stroke-width:0.12;stroke-miterlimit:22.9256}
    .fil0 {fill:#434242}
   ]]>
  </style>
 </defs>
 <g id="Слой_x0020_1">
  <metadata id="CorelCorpID_0Corel-Layer"/>
  <path id="man04" class="fil0 str0" d="M1.35 0.11c0.24,0 0.44,0.2 0.44,0.45 0,0.24 -0.2,0.44 -0.44,0.44 -0.25,0 -0.45,-0.2 -0.45,-0.44 0,-0.25 0.2,-0.45 0.45,-0.45zm-0.8 2.01l0.02 -0.56 0.33 0.26 -0.15 1.38c0,0.04 0.01,0.07 0.03,0.1 0.02,0.02 0.05,0.03 0.09,0.04l0.26 0c0.07,0 0.12,-0.05 0.12,-0.12l0.03 -0.7 0.12 0 0.01 0.68c0,0.07 0.05,0.12 0.12,0.12l0.25 0c0.04,0 0.07,-0.01 0.09,-0.04 0.03,-0.02 0.04,-0.05 0.03,-0.09l-0.13 -1.4c0.17,0.01 0.34,0.56 0.43,0.19 -0.03,-0.29 -0.23,-0.64 -0.63,-0.8 -0.15,-0.03 -0.29,-0.03 -0.43,0 -0.16,0.29 -0.31,0.24 -0.6,-0.01l-0.01 -0.2c0.32,-0.49 0.16,-0.69 -0.09,-0.83 0.05,0.13 0.12,0.31 -0.03,0.33 -0.12,0.03 -0.11,-0.16 -0.17,-0.25 -0.11,0.08 -0.17,0.23 -0.18,0.47l0.19 0.35 -0.03 1.08c0.11,0.12 0.22,0.12 0.33,0zm-0.3 -1.39l0.18 -0.15 0.08 0.09 -0.18 0.15 -0.08 -0.09zm0.14 1.17c0.04,0 0.07,0.03 0.07,0.07 0,0.04 -0.03,0.07 -0.07,0.07 -0.04,0 -0.07,-0.03 -0.07,-0.07 0,-0.04 0.03,-0.07 0.07,-0.07z"/>
 </g>
</svg>
