<?xml version="1.0" encoding="UTF-8"?>
<!DOCTYPE svg PUBLIC "-//W3C//DTD SVG 1.1//EN" "http://www.w3.org/Graphics/SVG/1.1/DTD/svg11.dtd">
<!-- Creator: CorelDRAW -->
<svg xmlns="http://www.w3.org/2000/svg" xml:space="preserve" width="40.2mm" height="30.4217mm" style="shape-rendering:geometricPrecision; text-rendering:geometricPrecision; image-rendering:optimizeQuality; fill-rule:evenodd; clip-rule:evenodd"
viewBox="0 0 7.81406 5.91336"
 xmlns:xlink="http://www.w3.org/1999/xlink">
 <defs>
  <style type="text/css">
   <![CDATA[
    .str3 {stroke:#1F1A17;stroke-width:0.0388759}
    .str2 {stroke:#383431;stroke-width:0.0388759}
    .str5 {stroke:#605D5C;stroke-width:0.0388759}
    .str7 {stroke:#716F61;stroke-width:0.0388759}
    .str6 {stroke:#957F66;stroke-width:0.0388759}
    .str1 {stroke:#DB214C;stroke-width:0.0388759}
    .str4 {stroke:#F8C300;stroke-width:0.0388759}
    .str0 {stroke:#FFF974;stroke-width:0.0388759}
    .fil4 {fill:#1F1A17}
    .fil3 {fill:#383431}
    .fil5 {fill:#605D5C}
    .fil10 {fill:#716F61}
    .fil9 {fill:#957F66}
    .fil8 {fill:#AAA9A9}
    .fil1 {fill:#DB214C}
    .fil2 {fill:#F8C300}
    .fil0 {fill:#FFF974}
    .fil7 {fill:url(#id0)}
    .fil6 {fill:url(#id1)}
   ]]>
  </style>
  <linearGradient id="id0" gradientUnits="userSpaceOnUse" x1="6.87254" y1="2.74956" x2="6.87254" y2="0.955978">
   <stop offset="0" style="stop-color:#C2C1C1"/>
   <stop offset="1" style="stop-color:white"/>
  </linearGradient>
  <linearGradient id="id1" gradientUnits="userSpaceOnUse" xlink:href="#id0" x1="6.06323" y1="2.19991" x2="6.06323" y2="0.975125">
  </linearGradient>
 </defs>
 <g id="samosval">
  <metadata id="CorelCorpID_0Corel-Layer"/>
  <g id="sborKabina">
   <g id="dno">
    <path id="_140814304" class="fil0 str0" d="M7.63426 3.26025l0.0483811 0c0.0616767,0 0.111963,0.0503054 0.111963,0.111982l0 0.187188c0,0.0616767 -0.050286,0.111982 -0.111963,0.111982l-0.0483811 0 0 -0.411152z"/>
    <path id="_140814232" class="fil1 str1" d="M7.63426 3.94406l0.045582 0c0.0154143,0 0.0279907,0.0125764 0.0279907,0.0279907l0 0.056545c0,0.0154143 -0.0125764,0.0279907 -0.0279907,0.0279907l-0.045582 0 0 -0.112526z"/>
    <path id="_140814160" class="fil2" d="M1.22898 3.47232l6.04175 0 0 0.787685 0.195565 0c0.0925053,0 0.167963,-0.0754582 0.167963,-0.167963l0 -1.07923 -6.24281 0c-0.0468066,0 -0.0871015,0.016911 -0.119874,0.0503443 -0.0327918,0.0334139 -0.0489448,0.0740003 -0.0480506,0.120807l0.00546207 0.288362z"/>
    <polygon id="_140814088" class="fil3 str2" points="1.22898,3.47232 7.27073,3.47232 7.27073,4.26 6.82928,3.6714 5.39674,3.6714 5.17168,3.94839 5.17168,4.26002 2.77837,4.26002 2.77837,3.93973 2.44512,3.67574 1.23114,3.67574 "/>
    <polygon id="_140814016" class="fil4 str3" points="1.22898,4.01779 1.22898,4.01779 2.7073,4.8017 5.31529,4.8017 7.20579,4.54565 7.27073,4.26 6.82928,3.6714 5.39674,3.6714 5.17168,3.94839 5.17168,4.26002 2.77837,4.26002 2.77837,3.93973 2.44512,3.67574 1.23114,3.67574 "/>
   </g>
   <g id="kabina">
    <path id="_140538688" class="fil2 str4" d="M5.44002 0.767391l-0.0856437 0c-0.138768,0 -0.251935,0.113168 -0.251935,0.251935l0 1.99424 0.337579 0 0 -2.24617z"/>
    <path id="_140538616" class="fil5 str5" d="M5.44002 0.767391l1.12414 0c0.9324,0.0161724 1.11113,1.58159 1.0701,2.24542l-2.19423 0.000758081 0 -2.24617z"/>
    <polygon id="_140538544" class="fil6" points="5.56552,0.975125 5.56552,2.19991 6.56093,2.19991 6.06756,0.975125 "/>
    <path id="_140538472" class="fil7" d="M6.23202 0.975125l0.597251 1.47149c0.0828835,0.156165 0.293552,0.250653 0.683808,0.302941 -0.0873736,-1.00928 -0.298587,-1.79358 -0.952149,-1.77443l-0.32891 0z"/>
    <path id="_140538400" class="fil4 str3" d="M7.41346 2.01445c0.0464567,0.243985 0.0779074,0.489156 0.0996196,0.735105 -0.142169,-0.015356 -0.280781,-0.0460097 -0.415137,-0.0951488l0.164251 -0.331728 -0.0756525 -0.0345801 -0.0492752 0.0866739c-0.00746418,0.0131206 -0.0240059,0.0179607 -0.0373792,0.0109241l-0.0104187 -0.00550094c-0.00688104,-0.00361546 -0.0114878,-0.00917472 -0.0137426,-0.0166 -0.0022548,-0.00744474 -0.0015356,-0.0146368 0.00215761,-0.0214595l0.141722 -0.262471c0.00695879,-0.0129068 0.0226064,-0.0182328 0.0359991,-0.0122848l0.00899978 0.00400422c0.00707542,0.00312951 0.0120321,0.00835832 0.0147923,0.0155698 0.00276019,0.00723092 0.00254637,0.014423 -0.000602577,0.0214595l-0.0468844 0.104518 0.0626874 0.0254637 0.118863 -0.223945z"/>
    <path id="_140538328" class="fil4 str3" d="M6.05432 1.58651l0.109475 0c0.0185049,0 0.0336082,0.0151033 0.0336082,0.0335888l0 0.187965c0,0.0340359 -0.0135677,0.0633483 -0.0395368,0.0853715l-0.00903865 0.007678 0 0.203788c0,0.0218871 0.0116628,0.0406253 0.0312951,0.0502666l0.00474286 0.00233256c0.00785294,0.00384872 0.0125375,0.0113518 0.0125375,0.0200989l0 0.0223148 -0.199064 0 0 -0.557403c0,-0.030848 0.0251527,-0.0560008 0.0559813,-0.0560008z"/>
   </g>
  </g>
  <g id="backWheel">
   <circle id="_140809424" class="fil3 str2" cx="1.81757" cy="4.87456" r="0.891545"/>
   <circle id="_140809376" class="fil8 str3" cx="1.81757" cy="4.87456" r="0.528002"/>
   <circle id="_140809328" class="fil3 str3" cx="1.81757" cy="4.87456" r="0.242362"/>
   <path id="_140809256" class="fil3 str2" d="M0.826211 4.8026l0.101661 0 0 0.144793 -0.101661 0c-0.0154337,0 -0.0280101,-0.0125764 -0.0280101,-0.0279907l0 -0.0888121c0,-0.0154143 0.0125764,-0.0279907 0.0280101,-0.0279907z"/>
   <path id="_140809184" class="fil3 str2" d="M0.923051 5.30792l0.088054 -0.0508303 0.072387 0.125394 -0.088054 0.0508303c-0.0133539,0.00771687 -0.0305176,0.00311007 -0.0382345,-0.0102438l-0.0443963 -0.076916c-0.00771687,-0.0133344 -0.00311007,-0.0305176 0.0102438,-0.0382345z"/>
   <path id="_140809112" class="fil3 str2" d="M1.2596 5.69713l0.0508303 -0.088054 0.125394 0.072387 -0.0508303 0.088054c-0.00771687,0.0133539 -0.0249,0.0179607 -0.0382539,0.0102632l-0.0768966 -0.0444157c-0.0133539,-0.00769743 -0.0179607,-0.0248806 -0.0102438,-0.0382345z"/>
   <path id="_140809040" class="fil3 str2" d="M1.74565 5.86593l0 -0.10168 0.144793 0 0 0.10168c0,0.0154143 -0.0125764,0.0279907 -0.0279907,0.0279907l-0.0888121 0c-0.0154337,0 -0.0279907,-0.0125764 -0.0279907,-0.0279907z"/>
   <path id="_140808968" class="fil3 str2" d="M2.25097 5.76907l-0.0508497 -0.0880345 0.125394 -0.0724064 0.0508497 0.088054c0.00769743,0.0133539 0.00311007,0.030537 -0.0102438,0.0382345l-0.076916 0.0444157c-0.0133539,0.00769743 -0.030537,0.00309064 -0.0382345,-0.0102632z"/>
   <path id="_140808896" class="fil3 str2" d="M2.64016 5.43254l-0.088054 -0.0508303 0.0724064 -0.125394 0.088054 0.0508303c0.0133539,0.00771687 0.0179412,0.0248806 0.0102438,0.0382345l-0.0444157 0.076916c-0.00769743,0.0133539 -0.0248806,0.0179412 -0.0382345,0.0102438z"/>
   <path id="_140808824" class="fil3 str2" d="M2.80896 4.94649l-0.10168 0 0 -0.144793 0.10168 0c0.0154143,0 0.0279907,0.0125764 0.0279907,0.0279907l0 0.0888121c0,0.0154143 -0.0125764,0.0279907 -0.0279907,0.0279907z"/>
   <path id="_140808752" class="fil3 str2" d="M2.71212 4.44117l-0.088054 0.0508303 -0.072387 -0.125394 0.0880345 -0.0508303c0.0133539,-0.00771687 0.030537,-0.00311007 0.0382539,0.0102438l0.0443963 0.076916c0.00771687,0.0133539 0.00311007,0.0305176 -0.0102438,0.0382345z"/>
   <path id="_140808680" class="fil3 str2" d="M2.37557 4.05196l-0.0508303 0.088054 -0.125394 -0.072387 0.0508303 -0.088054c0.00771687,-0.0133539 0.0249,-0.0179607 0.0382539,-0.0102438l0.076916 0.0443963c0.0133344,0.00771687 0.0179412,0.0248806 0.0102244,0.0382345z"/>
   <path id="_140808608" class="fil3 str2" d="M1.88953 3.88316l1.9438e-005 0.10168 -0.144793 0 0 -0.10168c0,-0.0154143 0.0125569,-0.0279907 0.0279907,-0.0279907l0.0888121 0c0.0154143,0 0.0279712,0.0125764 0.0279712,0.0279907z"/>
   <path id="_140808536" class="fil3 str2" d="M1.3842 3.98002l0.0508497 0.0880345 -0.125394 0.0724064 -0.0508303 -0.088054c-0.00771687,-0.0133539 -0.00311007,-0.030537 0.0102438,-0.0382345l0.0768966 -0.0444157c0.0133539,-0.00769743 0.030537,-0.00309064 0.0382345,0.0102632z"/>
   <path id="_140808464" class="fil3 str2" d="M0.99501 4.31655l0.088054 0.0508303 -0.072387 0.125414 -0.088054 -0.0508497c-0.0133539,-0.00769743 -0.0179607,-0.0248806 -0.0102438,-0.0382345l0.0443963 -0.076916c0.00771687,-0.0133539 0.0248806,-0.0179412 0.0382345,-0.0102438z"/>
  </g>
  <g id="frontWheel">
   <circle id="_140808320" class="fil3 str2" cx="6.20605" cy="4.8659" r="0.891545"/>
   <circle id="_140539744" class="fil8 str3" cx="6.20605" cy="4.8659" r="0.528002"/>
   <circle id="_140539696" class="fil3 str3" cx="6.20605" cy="4.8659" r="0.242362"/>
   <path id="_140539624" class="fil3 str2" d="M5.21468 4.79395l0.10168 0 0 0.144793 -0.10168 0c-0.0154143,0 -0.0279907,-0.0125764 -0.0279907,-0.0279907l0 -0.0888121c0,-0.0154143 0.0125764,-0.0279907 0.0279907,-0.0279907z"/>
   <path id="_140539552" class="fil3 str2" d="M5.31152 5.29927l0.088054 -0.0508497 0.0724064 0.125414 -0.088054 0.0508303c-0.0133539,0.00771687 -0.030537,0.00311007 -0.0382345,-0.0102438l-0.0444157 -0.076916c-0.00771687,-0.0133539 -0.00311007,-0.0305176 0.0102438,-0.0382345z"/>
   <path id="_140539480" class="fil3 str2" d="M5.64807 5.68848l0.0508303 -0.088054 0.125394 0.072387 -0.0508303 0.088054c-0.00771687,0.0133539 -0.0248806,0.0179607 -0.0382345,0.0102438l-0.076916 -0.0443963c-0.0133539,-0.00771687 -0.0179412,-0.0248806 -0.0102438,-0.0382345z"/>
   <path id="_140539408" class="fil3 str2" d="M6.13412 5.85728l0 -0.10168 0.144793 0 0 0.10168c0,0.0154143 -0.0125764,0.0279907 -0.0279907,0.0279907l-0.0888121 0c-0.0154143,0 -0.0279907,-0.0125764 -0.0279907,-0.0279907z"/>
   <path id="_140539336" class="fil3 str2" d="M6.63944 5.76042l-0.0508303 -0.088054 0.125394 -0.072387 0.0508303 0.088054c0.00771687,0.0133539 0.00311007,0.0305176 -0.0102438,0.0382345l-0.076916 0.0443963c-0.0133539,0.00771687 -0.0305176,0.00311007 -0.0382345,-0.0102438z"/>
   <path id="_140539264" class="fil3 str2" d="M7.02865 5.42389l-0.088054 -0.0508497 0.072387 -0.125394 0.088054 0.0508497c0.0133539,0.00769743 0.0179607,0.0248806 0.0102438,0.0382345l-0.0443963 0.076916c-0.00771687,0.0133539 -0.0248806,0.0179412 -0.0382345,0.0102438z"/>
   <path id="_140539192" class="fil3 str2" d="M7.19745 4.93785l-0.10168 0 0 -0.144793 0.10168 0c0.0154143,0 0.0279907,0.0125764 0.0279907,0.0279907l0 0.0888121c0,0.0154143 -0.0125764,0.0279907 -0.0279907,0.0279907z"/>
   <path id="_140539120" class="fil3 str2" d="M7.10059 4.4325l-0.088054 0.0508497 -0.072387 -0.125394 0.088054 -0.0508497c0.0133539,-0.00769743 0.030537,-0.00309064 0.0382345,0.0102632l0.0444157 0.0768966c0.00769743,0.0133539 0.00309064,0.030537 -0.0102632,0.0382345z"/>
   <path id="_140539048" class="fil3 str2" d="M6.76406 4.04331l-0.0508303 0.088054 -0.125394 -0.0724064 0.0508303 -0.088054c0.00769743,-0.0133539 0.0248806,-0.0179412 0.0382345,-0.0102438l0.076916 0.0444157c0.0133539,0.00769743 0.0179412,0.0248806 0.0102438,0.0382345z"/>
   <path id="_140538976" class="fil3 str2" d="M6.27801 3.87451l0 0.10168 -0.144793 0 0 -0.10168c0,-0.0154143 0.0125764,-0.0279907 0.0279907,-0.0279907l0.0888121 0c0.0154143,0 0.0279907,0.0125764 0.0279907,0.0279907z"/>
   <path id="_140538904" class="fil3 str2" d="M5.77269 3.97135l0.0508303 0.088054 -0.125394 0.0724064 -0.0508303 -0.088054c-0.00771687,-0.0133539 -0.00311007,-0.030537 0.0102438,-0.0382539l0.076916 -0.0443963c0.0133539,-0.00771687 0.0305176,-0.00311007 0.0382345,0.0102438z"/>
   <path id="_140538832" class="fil3 str2" d="M5.38348 4.3079l0.0880734 0.0508303 -0.0724064 0.125394 -0.088054 -0.0508303c-0.0133539,-0.00771687 -0.0179607,-0.0248806 -0.0102438,-0.0382345l0.0443963 -0.076916c0.00771687,-0.0133539 0.0249,-0.0179607 0.0382345,-0.0102438z"/>
  </g>
  <g id="sborKuzov">
   <path id="_140813872" class="fil2 str4" d="M0.019438 1.0487l4.76356 0c0.0925053,0 0.167963,-0.0754582 0.167963,-0.167963l0 -0.373889c0,-0.0925053 0.0754582,-0.167963 0.167963,-0.167963l2.11742 0 0 -0.103876c0,-0.0925053 -0.248573,-0.215567 -0.341078,-0.215567l-2.13234 0c-0.0925053,0 -0.167963,0.0754582 -0.167963,0.167963l0 0.416381c0,0.0925247 -0.0754582,0.167963 -0.167963,0.167963l-4.23959 0c-0.0925247,0 -0.167963,0.0754582 -0.167963,0.167983l0 0.108969z"/>
   <path id="_140813800" class="fil9 str6" d="M0.155659 1.0487l0 0.542358c0,0.0595968 0.027252,0.110835 0.0762551,0.143374l3.34337 2.2203c0.0454848,0.0302066 0.097287,0.0363879 0.148389,0.017708 0.0511218,-0.0186604 0.087257,-0.0569727 0.103546,-0.109747l0.86841 -2.81399 -4.53997 0z"/>
   <g id="shadowKuzov">
    <path id="_140813728" class="fil10 str7" d="M0.858983 1.29855l0.0132373 0.00480118c0.057964,0.0210513 0.0880734,0.0855076 0.0670221,0.143472l-0.221768 0.610721 -0.204312 -0.134763 0.202349 -0.557209c0.0210513,-0.057964 0.0855076,-0.0880734 0.143472,-0.0670221z"/>
    <path id="_140810288" class="fil10 str7" d="M1.62221 1.30367l0.017397 0.00602577c0.058275,0.020196 0.0893369,0.0841858 0.0691408,0.142461l-0.355831 1.02695 -0.2089 -0.137368 0.335732 -0.968924c0.020196,-0.058275 0.0841858,-0.0893369 0.142461,-0.0691408z"/>
    <path id="_140810216" class="fil10 str7" d="M2.38463 1.32847l0.017397 0.00602577c0.058275,0.020196 0.0893369,0.0841858 0.0691408,0.142461l-0.490459 1.41543 -0.209911 -0.134414 0.471371 -1.36037c0.020196,-0.058275 0.0841858,-0.0893369 0.142461,-0.0691408z"/>
    <path id="_140810144" class="fil10 str7" d="M3.14034 1.36503l0.017397 0.00602577c0.058275,0.020196 0.0893369,0.0842053 0.0691408,0.14248l-0.622248 1.79574 -0.209191 -0.136493 0.602441 -1.73861c0.020196,-0.058275 0.0841858,-0.0893369 0.142461,-0.0691408z"/>
    <path id="_140810072" class="fil10 str7" d="M3.90594 1.40342l0.0173775 0.00602577c0.0582944,0.020196 0.0893369,0.0841858 0.0691603,0.142461l-0.754018 2.17606 -0.209833 -0.134686 0.734833 -2.12072c0.020196,-0.058275 0.0842053,-0.0893369 0.14248,-0.0691408z"/>
   </g>
   <g id="elemKuzov">
    <path id="_140809928" class="fil2 str4" d="M0.80273 1.2596l0.0132178 0.00480118c0.0579834,0.0210513 0.0880928,0.0855076 0.0670415,0.143472l-0.221787 0.610721 -0.204293 -0.134763 0.20233 -0.557209c0.0210708,-0.057964 0.0855076,-0.0880734 0.143491,-0.0670221z"/>
    <path id="_140809856" class="fil2 str4" d="M1.56596 1.26471l0.017397 0.00602577c0.058275,0.020196 0.0893369,0.0841858 0.0691408,0.142461l-0.355851 1.02695 -0.2089 -0.137368 0.335752 -0.968924c0.0201766,-0.058275 0.0841858,-0.0893369 0.142461,-0.0691408z"/>
    <path id="_140809784" class="fil2 str4" d="M2.32838 1.28951l0.017397 0.00602577c0.058275,0.020196 0.0893369,0.0841858 0.0691408,0.142461l-0.490459 1.41543 -0.20993 -0.134414 0.47139 -1.36037c0.020196,-0.058275 0.0841858,-0.0893369 0.142461,-0.0691408z"/>
    <path id="_140809712" class="fil2 str4" d="M3.08409 1.32608l0.0173775 0.00604521c0.0582944,0.0201766 0.0893369,0.0841858 0.0691408,0.142461l-0.622229 1.79574 -0.209191 -0.136474 0.602421 -1.73861c0.020196,-0.0582944 0.0841858,-0.0893369 0.14248,-0.0691603z"/>
    <path id="_140809640" class="fil2 str4" d="M3.84967 1.36447l0.017397 0.00602577c0.058275,0.020196 0.0893369,0.0841858 0.0691408,0.142461l-0.754018 2.17606 -0.209833 -0.134686 0.734852 -2.12072c0.020196,-0.058275 0.0841858,-0.0893369 0.142461,-0.0691408z"/>
   </g>
  </g>
 </g>
</svg>
